<svg width="309" height="39" viewBox="0 0 309 39" fill="none" xmlns="http://www.w3.org/2000/svg">
<path d="M59.978 36.1962V27.1786C60.9368 28.4097 62.6775 29.0993 64.6942 29.0993C69.8434 29.0993 73.3212 25.3703 73.3212 19.6845C73.3212 13.9988 70.126 10.2698 65.1227 10.2698C62.8155 10.2698 61.039 11.1399 59.974 12.5514V10.5465H55.0451V36.1842L59.978 36.1962ZM64.0848 24.7528C61.4202 24.7528 59.683 22.7239 59.683 19.6845C59.683 16.6452 61.4202 14.5802 64.0848 14.5802C66.6751 14.5802 68.4516 16.5851 68.4516 19.6845C68.4516 22.784 66.687 24.7528 64.0848 24.7528Z" fill="white"/>
<path d="M84.9799 29.2405C90.6784 29.2405 94.7484 25.225 94.7484 19.7552C94.7484 14.2854 90.6784 10.2698 84.9799 10.2698C79.2815 10.2698 75.2119 14.2813 75.2119 19.7552C75.2119 25.229 79.2815 29.2405 84.9799 29.2405ZM84.9799 24.8615C82.2247 24.8615 80.3482 22.7809 80.3482 19.7552C80.3482 16.7294 82.2287 14.6125 84.9799 14.6125C87.7316 14.6125 89.6121 16.689 89.6121 19.7552C89.6121 22.8213 87.7396 24.8615 84.9799 24.8615Z" fill="white"/>
<path d="M102.311 28.6082V2.68157H97.9V28.6082H102.311Z" fill="white"/>
<path d="M117.839 10.9022L113.973 22.5128L110.071 10.9022H104.831L111.568 28.7632L108.844 36.1962H113.737L116.368 28.8423L123.108 10.9101L117.839 10.9022Z" fill="white"/>
<path d="M136.875 12.3696C135.847 11.1033 134.029 10.2698 131.772 10.2698C126.373 10.2698 123.108 13.9966 123.108 19.6787C123.108 25.361 126.361 29.0877 131.846 29.0877C134.013 29.0877 135.956 28.2862 136.912 26.9518V29.3561C136.912 31.0552 135.774 32.2493 134.233 32.2493H125.714V36.1962H135.041C139.225 36.1962 142.015 33.6999 142.015 29.8971V10.5584H136.875V12.3696ZM132.654 24.7438C129.935 24.7438 128.138 22.7402 128.138 19.6787C128.138 16.6172 129.935 14.5776 132.654 14.5776C135.375 14.5776 137.205 16.5812 137.205 19.6787C137.205 22.7763 135.407 24.7438 132.654 24.7438Z" fill="white"/>
<path d="M154.619 29.2405C160.133 29.2405 164.072 25.225 164.072 19.7552C164.072 14.2854 160.133 10.2698 154.619 10.2698C149.105 10.2698 145.166 14.2813 145.166 19.7552C145.166 25.229 149.105 29.2405 154.619 29.2405ZM154.619 24.8615C151.948 24.8615 150.137 22.7809 150.137 19.7552C150.137 16.7294 151.948 14.6125 154.619 14.6125C157.29 14.6125 159.102 16.689 159.102 19.7552C159.102 22.8213 157.285 24.8615 154.619 24.8615Z" fill="white"/>
<path d="M171.728 28.6082V18.7211C171.728 16.3932 173.305 14.7116 175.543 14.7116C177.672 14.7116 179.103 16.298 179.103 18.4713V28.6082H184.239V17.3609C184.239 13.2046 181.524 10.2698 177.331 10.2698C174.8 10.2698 172.748 11.3089 171.72 13.0459V10.5554H166.593V28.6082H171.728Z" fill="white"/>
<path d="M196.148 25.8819L208.087 11.9826H196.684V9.25647H211.646V11.9826L199.783 25.8819H212.181V28.6081H196.148V25.8819Z" fill="white"/>
<path d="M216.242 28.6081V1.30841H219.342V17.4348L228.411 9.25645H232.467L224.202 16.8204L233.232 28.6081H229.368L221.868 18.9322L219.342 21.236V28.6081H216.242Z" fill="white"/>
<path d="M236.5 1.73078H253.26V4.68727H239.752V13.2496H250.735V16.2061H239.752V25.6515H253.681V28.608H236.5V1.73078Z" fill="white"/>
<path d="M255.61 1.73078H258.977L267.396 24.8069L275.891 1.73078H279.22L269.08 28.608H265.75L255.61 1.73078Z" fill="white"/>
<path d="M282.315 1.73078H286.562L295.401 24.1925L304.203 1.73078H308.45V28.608H305.274V7.18302L296.817 28.608H293.948L285.491 7.18302V28.608H282.315V1.73078Z" fill="white"/>
<path d="M20.9481 6.00915C20.5326 6.26178 20.1887 6.61701 19.9493 7.04097C19.7098 7.46494 19.5828 7.94354 19.5804 8.43105L19.6606 15.8174L19.6274 20.7861L19.7078 28.1721C19.7051 28.6596 19.578 29.1381 19.3386 29.562C19.0992 29.986 18.7555 30.3412 18.34 30.594L13.3272 33.5788C12.9185 33.8211 12.4541 33.9537 11.9791 33.9636C11.5039 33.9735 11.0341 33.8605 10.6149 33.6354L5.64771 30.8111C5.22823 30.5792 4.88062 30.2358 4.64322 29.8186C4.40582 29.4015 4.28782 28.927 4.30228 28.4474L4.30763 22.7097C4.31029 22.2222 4.43739 21.7438 4.67678 21.3198C4.91622 20.8959 5.25998 20.5406 5.67535 20.2878L10.578 17.3346C10.9867 17.0923 11.451 16.9597 11.9261 16.9498C12.4012 16.9399 12.871 17.053 13.2903 17.278L16.5084 19.1078L16.4717 14.0993L13.2535 12.2695C12.8397 12.0277 12.3674 11.9049 11.8888 11.9149C11.4102 11.9249 10.9439 12.0672 10.5413 12.3261L1.37841 17.7504C0.963001 18.0032 0.619237 18.3585 0.379845 18.7824C0.140453 19.2064 0.013349 19.6849 0.0106955 20.1723L0.00118674 30.9908C-0.013275 31.4703 0.104674 31.9448 0.342032 32.3619C0.57939 32.7789 0.926913 33.1224 1.3463 33.3543L10.6511 38.6449C11.0649 38.8867 11.5372 39.0096 12.0158 38.9994C12.4944 38.9897 12.9607 38.8472 13.3634 38.5881L22.6071 33.0215C23.0225 32.7686 23.3663 32.4134 23.6057 31.9894C23.8451 31.5655 23.9721 31.087 23.9748 30.5995L23.9644 23.2533L23.9277 18.2448L23.9174 10.8983C23.9198 10.4107 24.0468 9.93215 24.2863 9.50818C24.5257 9.08422 24.8696 8.72899 25.2851 8.47636L30.1877 5.52314C30.5964 5.2808 31.0608 5.1483 31.5359 5.1384C32.011 5.12846 32.4808 5.24149 32.9 5.46656L37.8672 8.29082C38.2867 8.52273 38.6344 8.8662 38.8719 9.28329C39.109 9.70038 39.227 10.1749 39.2124 10.6545L39.2775 16.432C39.2744 16.9194 39.1474 17.3979 38.9082 17.8219C38.6685 18.2458 38.3249 18.6011 37.9095 18.8539L33.0069 21.8071C32.5982 22.0494 32.1339 22.1819 31.6587 22.1918C31.1837 22.2017 30.7138 22.0887 30.2946 21.8637L27.0761 20.0337L27.1128 25.0422L30.331 26.872C30.7449 27.1139 31.2172 27.2366 31.6957 27.2266C32.1743 27.2166 32.6406 27.0743 33.0433 26.8154L42.287 21.2486C42.7023 20.9958 43.0463 20.6405 43.2856 20.2166C43.5249 19.7927 43.6522 19.3142 43.6549 18.8267L43.6637 8.00921C43.6606 7.53288 43.5355 7.06507 43.2998 6.65104C43.064 6.23702 42.7262 5.89066 42.3184 5.64548L33.0139 0.355171C32.6 0.113279 32.1277 -0.00942034 31.6491 0.000564233C31.1705 0.0105488 30.7042 0.152818 30.3016 0.411751L20.9481 6.00915Z" fill="url(#paint0_linear_176_208)"/>
<defs>
<linearGradient id="paint0_linear_176_208" x1="5.28723" y1="10.0927" x2="38.4322" y2="28.8107" gradientUnits="userSpaceOnUse">
<stop stop-color="#A128C5"/>
<stop offset="1" stop-color="#7C3FE3"/>
</linearGradient>
</defs>
</svg>
