<svg width="214" height="41" viewBox="0 0 214 41" fill="none" xmlns="http://www.w3.org/2000/svg">
<path d="M188.933 20.6C187.833 19.85 186.633 19.35 185.433 18.7C184.683 18.3 183.883 17.9 183.233 17.35C182.133 16.45 182.333 14.65 183.533 13.85C185.183 12.75 187.933 13.35 188.233 15.6C188.233 15.65 188.283 15.7 188.333 15.7H190.833C190.883 15.7 190.933 15.65 190.933 15.6C190.783 14.05 190.183 12.75 189.083 11.9C188.033 11.1 186.833 10.7 185.533 10.7C178.933 10.7 178.333 17.7 181.883 19.9C182.283 20.15 185.783 21.9 187.033 22.7C188.283 23.45 188.633 24.85 188.133 25.95C187.633 26.95 186.383 27.65 185.133 27.55C183.733 27.45 182.683 26.7 182.283 25.55C182.233 25.35 182.183 24.95 182.183 24.75C182.183 24.7 182.133 24.65 182.083 24.65H179.383C179.333 24.65 179.283 24.7 179.283 24.75C179.283 26.7 179.783 27.8 181.083 28.8C182.333 29.75 183.683 30.15 185.133 30.15C188.833 30.15 190.733 28.05 191.133 25.9C191.433 23.8 190.833 21.9 188.933 20.6Z" fill="white"/>
<path d="M71.0833 11.1H69.8833H68.5833C68.5333 11.1 68.4833 11.15 68.4833 11.15L66.2333 18.5C66.1833 18.6 66.0833 18.6 66.0333 18.5L63.7833 11.15C63.7833 11.1 63.7333 11.1 63.6833 11.1H62.3833H61.1833H59.5833C59.5333 11.1 59.4833 11.15 59.4833 11.2V29.95C59.4833 30 59.5333 30.05 59.5833 30.05H62.2833C62.3333 30.05 62.3833 30 62.3833 29.95V15.7C62.3833 15.6 62.5333 15.55 62.5833 15.65L64.8333 23.05L64.9833 23.55C64.9833 23.6 65.0333 23.6 65.0833 23.6H67.1833C67.2333 23.6 67.2833 23.55 67.2833 23.55L67.4333 23.05L69.6833 15.65C69.7333 15.55 69.8833 15.55 69.8833 15.7V29.95C69.8833 30 69.9333 30.05 69.9833 30.05H72.6833C72.7333 30.05 72.7833 30 72.7833 29.95V11.2C72.7833 11.15 72.7333 11.1 72.6833 11.1H71.0833Z" fill="white"/>
<path d="M147.383 11.1C147.333 11.1 147.283 11.15 147.283 11.15L145.033 18.5C144.983 18.6 144.883 18.6 144.833 18.5L142.583 11.15C142.583 11.1 142.533 11.1 142.483 11.1H138.333C138.283 11.1 138.233 11.15 138.233 11.2V29.95C138.233 30 138.283 30.05 138.333 30.05H141.033C141.083 30.05 141.133 30 141.133 29.95V15.7C141.133 15.6 141.283 15.55 141.333 15.65L143.583 23.05L143.733 23.55C143.733 23.6 143.783 23.6 143.833 23.6H145.933C145.983 23.6 146.033 23.55 146.033 23.55L146.183 23.05L148.433 15.65C148.483 15.55 148.633 15.55 148.633 15.7V29.95C148.633 30 148.683 30.05 148.733 30.05H151.433C151.483 30.05 151.533 30 151.533 29.95V11.2C151.533 11.15 151.483 11.1 151.433 11.1H147.383Z" fill="white"/>
<path d="M112.383 11.1H107.333H104.633H99.5334C99.4834 11.1 99.4334 11.15 99.4334 11.2V13.55C99.4334 13.6 99.4834 13.65 99.5334 13.65H104.483V29.95C104.483 30 104.533 30.05 104.583 30.05H107.283C107.333 30.05 107.383 30 107.383 29.95V13.65H112.333C112.383 13.65 112.433 13.6 112.433 13.55V11.2C112.483 11.15 112.433 11.1 112.383 11.1Z" fill="white"/>
<path d="M128.383 30.05H130.833C130.883 30.05 130.933 30 130.933 29.9L125.833 11.1C125.833 11.05 125.783 11.05 125.733 11.05H124.783H123.133H122.183C122.133 11.05 122.083 11.1 122.083 11.1L116.983 29.9C116.983 29.95 117.033 30.05 117.083 30.05H119.533C119.583 30.05 119.633 30 119.633 30L121.133 24.5C121.133 24.45 121.183 24.45 121.233 24.45H126.683C126.733 24.45 126.783 24.5 126.783 24.5L128.283 30C128.283 30 128.333 30.05 128.383 30.05ZM121.883 21.75L123.883 14.4C123.933 14.3 124.033 14.3 124.083 14.4L126.083 21.75C126.083 21.8 126.033 21.9 125.983 21.9H122.033C121.933 21.9 121.883 21.8 121.883 21.75Z" fill="white"/>
<path d="M170.483 30.05H172.933C172.983 30.05 173.033 30 173.033 29.9L167.933 11.1C167.933 11.05 167.883 11.05 167.833 11.05H166.883H165.233H164.283C164.233 11.05 164.183 11.1 164.183 11.1L159.083 29.9C159.083 29.95 159.133 30.05 159.183 30.05H161.633C161.683 30.05 161.733 30 161.733 30L163.233 24.5C163.233 24.45 163.283 24.45 163.333 24.45H168.783C168.833 24.45 168.883 24.5 168.883 24.5L170.383 30C170.383 30 170.433 30.05 170.483 30.05ZM163.983 21.75L165.983 14.4C166.033 14.3 166.133 14.3 166.183 14.4L168.183 21.75C168.183 21.8 168.133 21.9 168.083 21.9H164.133C164.033 21.9 163.983 21.8 163.983 21.75Z" fill="white"/>
<path d="M83.7834 27.25V21.45C83.7834 21.4 83.8334 21.35 83.8834 21.35H91.1334C91.1834 21.35 91.2334 21.3 91.2334 21.25V18.9C91.2334 18.85 91.1834 18.8 91.1334 18.8H83.8834C83.8334 18.8 83.7834 18.75 83.7834 18.7V13.75C83.7834 13.7 83.8334 13.65 83.8834 13.65H92.0834C92.1334 13.65 92.1834 13.6 92.1834 13.55V11.2C92.1834 11.15 92.1334 11.1 92.0834 11.1H83.7834H80.9834C80.9334 11.1 80.8834 11.15 80.8834 11.2V13.65V18.85V21.4V27.4V29.95C80.8834 30 80.9334 30.05 80.9834 30.05H83.7834H92.4334C92.4834 30.05 92.5334 30 92.5334 29.95V27.5C92.5334 27.45 92.4834 27.4 92.4334 27.4H83.8334C83.8334 27.35 83.7834 27.3 83.7834 27.25Z" fill="white"/>
<path d="M213.733 29.85L204.333 20.15C204.283 20.1 204.283 20.05 204.333 20L212.783 11.2C212.833 11.15 212.783 11.05 212.733 11.05H209.283C209.233 11.05 209.233 11.05 209.233 11.1L202.033 18.6C201.983 18.65 201.883 18.6 201.883 18.55V11.25C201.883 11.2 201.833 11.15 201.783 11.15H199.033C198.983 11.15 198.933 11.2 198.933 11.25V30C198.933 30.05 198.983 30.1 199.033 30.1H201.733C201.783 30.1 201.833 30.05 201.833 30V21.75C201.833 21.65 201.933 21.6 201.983 21.7L210.083 30.1L210.133 30.15H213.583C213.733 30.05 213.783 29.9 213.733 29.85Z" fill="white"/>
<path d="M40.95 1L24.55 13.2L27.6 6L40.95 1Z" fill="#E17726" stroke="#E17726" stroke-linecap="round" stroke-linejoin="round"/>
<path d="M3.05 1L19.35 13.3L16.45 6L3.05 1Z" fill="#E27625" stroke="#E27625" stroke-linecap="round" stroke-linejoin="round"/>
<path d="M35.05 29.25L30.65 35.95L40.05 38.55L42.7 29.4L35.05 29.25Z" fill="#E27625" stroke="#E27625" stroke-linecap="round" stroke-linejoin="round"/>
<path d="M1.34995 29.4L3.99995 38.55L13.3499 35.95L8.99995 29.25L1.34995 29.4Z" fill="#E27625" stroke="#E27625" stroke-linecap="round" stroke-linejoin="round"/>
<path d="M12.85 17.95L10.25 21.9L19.5 22.3L19.2 12.3L12.85 17.95Z" fill="#E27625" stroke="#E27625" stroke-linecap="round" stroke-linejoin="round"/>
<path d="M31.2 17.95L24.75 12.2L24.55 22.3L33.8 21.9L31.2 17.95Z" fill="#E27625" stroke="#E27625" stroke-linecap="round" stroke-linejoin="round"/>
<path d="M13.35 35.95L18.95 33.25L14.1 29.45L13.35 35.95Z" fill="#E27625" stroke="#E27625" stroke-linecap="round" stroke-linejoin="round"/>
<path d="M25.1 33.25L30.65 35.95L29.9 29.45L25.1 33.25Z" fill="#E27625" stroke="#E27625" stroke-linecap="round" stroke-linejoin="round"/>
<path d="M30.6501 35.95L25.1001 33.25L25.5501 36.85L25.5001 38.4L30.6501 35.95Z" fill="#D5BFB2" stroke="#D5BFB2" stroke-linecap="round" stroke-linejoin="round"/>
<path d="M13.35 35.95L18.55 38.4L18.5 36.85L18.95 33.25L13.35 35.95Z" fill="#D5BFB2" stroke="#D5BFB2" stroke-linecap="round" stroke-linejoin="round"/>
<path d="M18.65 27.05L14 25.7L17.25 24.2L18.65 27.05Z" fill="#233447" stroke="#233447" stroke-linecap="round" stroke-linejoin="round"/>
<path d="M25.4 27.05L26.75 24.2L30.05 25.7L25.4 27.05Z" fill="#233447" stroke="#233447" stroke-linecap="round" stroke-linejoin="round"/>
<path d="M13.35 35.95L14.15 29.25L9.00002 29.4L13.35 35.95Z" fill="#CC6228" stroke="#CC6228" stroke-linecap="round" stroke-linejoin="round"/>
<path d="M29.9 29.25L30.65 35.95L35.05 29.4L29.9 29.25Z" fill="#CC6228" stroke="#CC6228" stroke-linecap="round" stroke-linejoin="round"/>
<path d="M33.8 21.9L24.55 22.3L25.4 27.05L26.75 24.2L30.05 25.7L33.8 21.9Z" fill="#CC6228" stroke="#CC6228" stroke-linecap="round" stroke-linejoin="round"/>
<path d="M14 25.7L17.25 24.2L18.65 27.05L19.5 22.3L10.25 21.9L14 25.7Z" fill="#CC6228" stroke="#CC6228" stroke-linecap="round" stroke-linejoin="round"/>
<path d="M10.25 21.9L14.1 29.45L14 25.7L10.25 21.9Z" fill="#E27525" stroke="#E27525" stroke-linecap="round" stroke-linejoin="round"/>
<path d="M30.0501 25.7L29.9001 29.45L33.8001 21.9L30.0501 25.7Z" fill="#E27525" stroke="#E27525" stroke-linecap="round" stroke-linejoin="round"/>
<path d="M19.5001 22.3001L18.6501 27.0501L19.7001 32.7001L19.9501 25.2501L19.5001 22.3001Z" fill="#E27525" stroke="#E27525" stroke-linecap="round" stroke-linejoin="round"/>
<path d="M24.55 22.3001L24.1 25.2501L24.3 32.7001L25.4 27.0501L24.55 22.3001Z" fill="#E27525" stroke="#E27525" stroke-linecap="round" stroke-linejoin="round"/>
<path d="M25.4 27.05L24.3 32.7L25.1 33.25L29.9 29.45L30.05 25.7L25.4 27.05Z" fill="#F5841F" stroke="#F5841F" stroke-linecap="round" stroke-linejoin="round"/>
<path d="M14 25.7L14.1 29.45L18.95 33.25L19.7 32.7L18.65 27.05L14 25.7Z" fill="#F5841F" stroke="#F5841F" stroke-linecap="round" stroke-linejoin="round"/>
<path d="M25.5 38.4L25.55 36.85L25.1 36.5H18.9L18.5 36.85L18.55 38.4L13.35 35.95L15.15 37.45L18.85 40H25.15L28.85 37.45L30.65 35.95L25.5 38.4Z" fill="#C0AC9D" stroke="#C0AC9D" stroke-linecap="round" stroke-linejoin="round"/>
<path d="M25.1 33.25L24.3 32.7H19.7L18.95 33.25L18.5 36.85L18.9 36.5H25.1L25.55 36.85L25.1 33.25Z" fill="#161616" stroke="#161616" stroke-linecap="round" stroke-linejoin="round"/>
<path d="M41.65 14L43.05 7.25L40.95 1L25.1 12.8L31.2 17.95L39.8 20.45L41.7 18.25L40.9 17.65L42.2 16.45L41.2 15.65L42.5 14.65L41.65 14Z" fill="#763E1A" stroke="#763E1A" stroke-linecap="round" stroke-linejoin="round"/>
<path d="M1 7.25L2.4 14L1.5 14.65L2.8 15.65L1.8 16.45L3.15 17.65L2.3 18.25L4.2 20.45L12.85 17.95L18.95 12.8L3.05 1L1 7.25Z" fill="#763E1A" stroke="#763E1A" stroke-linecap="round" stroke-linejoin="round"/>
<path d="M39.8 20.45L31.2 17.95L33.8 21.9L29.9 29.45L35.05 29.4H42.7L39.8 20.45Z" fill="#F5841F" stroke="#F5841F" stroke-linecap="round" stroke-linejoin="round"/>
<path d="M12.85 17.95L4.19996 20.45L1.34996 29.4H8.99996L14.1 29.45L10.25 21.9L12.85 17.95Z" fill="#F5841F" stroke="#F5841F" stroke-linecap="round" stroke-linejoin="round"/>
<path d="M24.55 22.3L25.1 12.8L27.6 6.00002H16.45L18.95 12.8L19.5 22.3L19.7 25.3V32.7H24.3V25.3L24.55 22.3Z" fill="#F5841F" stroke="#F5841F" stroke-linecap="round" stroke-linejoin="round"/>
</svg>
