<svg width="243" height="39" viewBox="0 0 243 39" fill="none" xmlns="http://www.w3.org/2000/svg">
<path d="M88.4147 15.7992L85.0894 27.6257H81.6283L77 10.3088H80.8004L83.5557 22.8467H83.6507L86.9217 10.3088H90.0163L93.2874 22.8467H93.3824L96.1512 10.3088H99.9516L95.3097 27.6257H91.8486L88.5233 15.7992H88.4147ZM105.001 25.2899C106.534 25.2899 107.81 24.2965 107.81 22.9004V21.9608L105.069 22.1218C103.752 22.2158 102.992 22.8065 102.992 23.7193C102.992 24.6993 103.793 25.2899 105.001 25.2899ZM103.833 27.827C101.363 27.827 99.4766 26.243 99.4766 23.9341C99.4766 21.5983 101.295 20.2425 104.539 20.0411L107.81 19.8532V19.0075C107.81 17.8128 106.955 17.1147 105.625 17.1147C104.308 17.1147 103.467 17.7591 103.291 18.7122H100.047C100.182 16.2153 102.327 14.497 105.774 14.497C109.113 14.497 111.285 16.2019 111.285 18.7927V27.6391H107.865V25.6658H107.797C107.064 27.0216 105.462 27.827 103.833 27.827ZM113.66 10.3088H117.203V27.6257H113.66V10.3088ZM119.673 10.3088H123.215V27.6257H119.673V10.3088ZM131.441 17.0744C129.893 17.0744 128.767 18.2423 128.645 19.8398H134.169C134.101 18.202 133.015 17.0744 131.441 17.0744ZM134.223 23.6925H137.48C137.087 26.2162 134.766 27.9076 131.549 27.9076C127.545 27.9076 125.143 25.3704 125.143 21.2627C125.143 17.155 127.572 14.497 131.413 14.497C135.2 14.497 137.589 17.0342 137.589 20.9405V22.0145H128.631V22.2292C128.631 24.0683 129.812 25.3302 131.617 25.3302C132.893 25.3033 133.884 24.6724 134.223 23.6925ZM140.344 11.7988H143.887V14.7655H146.289V17.41H143.887V23.5582C143.887 24.5382 144.375 25.008 145.421 25.008C145.733 25.008 146.058 24.9812 146.276 24.9543V27.5317C145.909 27.6123 145.298 27.6794 144.593 27.6794C141.539 27.6794 140.344 26.6726 140.344 24.1623V17.41H138.512V14.7655H140.344V11.7988ZM156.265 27.921C151.175 27.921 147.986 24.5516 147.986 18.9538C147.986 13.3694 151.203 10 156.265 10C160.473 10 163.676 12.6445 163.961 16.5106H160.391C160.052 14.3896 158.396 12.9935 156.265 12.9935C153.496 12.9935 151.718 15.289 151.718 18.9269C151.718 22.6185 153.483 24.9006 156.279 24.9006C158.45 24.9006 160.011 23.6388 160.405 21.5849H163.975C163.554 25.4778 160.568 27.921 156.265 27.921ZM171.887 27.8942C167.951 27.8942 165.44 25.3973 165.44 21.1822C165.44 17.0207 167.992 14.4836 171.887 14.4836C175.783 14.4836 178.335 17.0073 178.335 21.1822C178.335 25.4107 175.824 27.8942 171.887 27.8942ZM171.887 25.2228C173.625 25.2228 174.724 23.773 174.724 21.1956C174.724 18.645 173.611 17.1684 171.887 17.1684C170.164 17.1684 169.037 18.645 169.037 21.1956C169.037 23.773 170.15 25.2228 171.887 25.2228ZM180.153 27.6257V14.7655H183.574V17.061H183.642C184.334 15.4636 185.705 14.5239 187.713 14.5239C190.604 14.5239 192.22 16.3227 192.22 19.3297V27.6257H188.677V20.068C188.677 18.39 187.876 17.4235 186.288 17.4235C184.7 17.4235 183.696 18.5779 183.696 20.2425V27.6257H180.153ZM194.459 27.6257V14.7655H197.879V17.061H197.947C198.639 15.4636 200.01 14.5239 202.006 14.5239C204.897 14.5239 206.512 16.3227 206.512 19.3297V27.6257H202.969V20.068C202.969 18.39 202.168 17.4235 200.58 17.4235C198.992 17.4235 197.988 18.5779 197.988 20.2425V27.6257H194.459ZM214.615 17.0744C213.067 17.0744 211.941 18.2423 211.819 19.8398H217.343C217.275 18.202 216.189 17.0744 214.615 17.0744ZM217.384 23.6925H220.641C220.247 26.2162 217.926 27.9076 214.71 27.9076C210.706 27.9076 208.303 25.3704 208.303 21.2627C208.303 17.155 210.733 14.497 214.574 14.497C218.361 14.497 220.75 17.0342 220.75 20.9405V22.0145H211.792V22.2292C211.792 24.0683 212.972 25.3302 214.778 25.3302C216.067 25.3033 217.058 24.6724 217.384 23.6925ZM234.377 19.5444H231.092C230.888 18.1886 229.979 17.2355 228.527 17.2355C226.776 17.2355 225.69 18.6987 225.69 21.1822C225.69 23.7193 226.776 25.1557 228.54 25.1557C229.966 25.1557 230.875 24.31 231.106 22.9139H234.404C234.227 25.9477 231.934 27.9076 228.513 27.9076C224.591 27.9076 222.107 25.3839 222.107 21.1956C222.107 17.0744 224.591 14.497 228.486 14.497C231.988 14.4836 234.227 16.6314 234.377 19.5444ZM237.051 11.7988H240.593V14.7655H242.995V17.41H240.593V23.5582C240.593 24.5382 241.082 25.008 242.127 25.008C242.439 25.008 242.765 24.9812 242.982 24.9543V27.5317C242.615 27.6123 242.018 27.6794 241.299 27.6794C238.245 27.6794 237.051 26.6726 237.051 24.1623V17.41H235.218V14.7655H237.051V11.7988Z" fill="white"/>
<path d="M13.1826 7.62146C23.6744 -2.54049 40.6811 -2.54049 51.1864 7.62146L52.4487 8.84304C52.9781 9.35315 52.9781 10.172 52.4487 10.6821L48.1326 14.8704C47.8747 15.1255 47.4403 15.1255 47.1825 14.8704L45.4451 13.1924C38.1294 6.10455 26.2532 6.10455 18.9375 13.1924L17.078 14.9912C16.8201 15.2463 16.3858 15.2463 16.1279 14.9912L11.7982 10.8029C11.2688 10.2928 11.2688 9.47397 11.7982 8.96386L13.1826 7.62146ZM60.1174 16.2665L63.9585 19.9849C64.4878 20.4951 64.4878 21.3139 63.9585 21.824L46.626 38.6174C46.0966 39.1275 45.2551 39.1275 44.7258 38.6174L32.4153 26.6969C32.2795 26.5761 32.0759 26.5761 31.9402 26.6969L19.6432 38.6174C19.1139 39.1275 18.2724 39.1275 17.743 38.6174L0.397005 21.8375C-0.132335 21.3273 -0.132335 20.5085 0.397005 19.9984L4.23811 16.2799C4.76745 15.7698 5.60896 15.7698 6.1383 16.2799L18.4488 28.2004C18.5846 28.3212 18.7882 28.3212 18.9239 28.2004L31.2208 16.2799C31.7502 15.7698 32.5917 15.7698 33.121 16.2799L45.4316 28.2004C45.5673 28.3212 45.7709 28.3212 45.9066 28.2004L58.2172 16.2799C58.7329 15.7564 59.588 15.7564 60.1174 16.2665Z" fill="#3A99FB"/>
</svg>
